# xmcd CD database file
#
# Track frame offsets:
#	150
#	19198
#	45773
#	60618
#	73059
#	92906
#	106905
#	119740
#	138131
#	157956
#	170482
#	194277
#	204659
#	225768
#	237643
#	260200
#	280929
#	293216
#	304182
#	317523
#
# Disc length: 4430 seconds
#
# Revision: 0
# Processed by: cddbd v1.5PL3 Copyright (c) Steve Scherf et al.
# Submitted via: CDex 1.51
#
DISCID=1f114c14
DTITLE=Blues In The Face - Blues In The Face
DYEAR=1900
DGENRE=Blues
TTITLE0=Ronny Jordan/ Mystic Voyage
TTITLE1=Ronny Jordan/ After Hours
TTITLE2=Sonny Boy Williams/ The Sky is Crying
TTITLE3=Fabulous Thunderbird/ Wrap it up
TTITLE4=Ronny Jordan/ Tinsel Town
TTITLE5=Jimmy Witherspoon/ Kansas City
TTITLE6=Jimmy Witherspoon/ Time Brings About A Change
TTITLE7=Lightning Hopkins/ Gamblers Blue
TTITLE8=Ronnie Earl/ The Stumble
TTITLE9=VA/ Unknown
TTITLE10=Ronnie Earl/ My Home is a Prison
TTITLE11=Earl Hooker/ Move on Down
TTITLE12=Ted Hawkins/ Biloxi
TTITLE13=Earl Hooker/ Will my Man
TTITLE14=VA/ unknown
TTITLE15=Ronnie Jordan/ So What
TTITLE16=Albert Ammons/ Sixth
TTITLE17=Blind Snooks Eaglin/ The Legacy
TTITLE18=Charley Patton/ Poor me
TTITLE19=Elmore James/ Whose Muddy Shoes Are These
EXTD=
EXTT0=
EXTT1=
EXTT2=
EXTT3=
EXTT4=
EXTT5=
EXTT6=
EXTT7=
EXTT8=
EXTT9=
EXTT10=
EXTT11=
EXTT12=
EXTT13=
EXTT14=
EXTT15=
EXTT16=
EXTT17=
EXTT18=
EXTT19=
PLAYORDER=
